<svg width="34" height="34" viewBox="0 0 34 34" fill="none" xmlns="http://www.w3.org/2000/svg">
<path d="M30.3795 26.0415C30.3795 26.5372 30.2694 27.0467 30.0353 27.5424C29.8012 28.0381 29.4983 28.5063 29.099 28.9469C28.4243 29.6904 27.6807 30.2274 26.8408 30.5717C26.0146 30.9159 25.1196 31.0949 24.1558 31.0949C22.7513 31.0949 21.2504 30.7644 19.667 30.0897C18.0835 29.415 16.5 28.5063 14.9303 27.3634C13.3468 26.2068 11.8459 24.9262 10.4139 23.508C8.99568 22.076 7.71513 20.5751 6.57227 19.0054C5.44318 17.4357 4.53441 15.866 3.87348 14.31C3.21255 12.7403 2.88208 11.2395 2.88208 9.80745C2.88208 8.87113 3.04731 7.97612 3.37778 7.14996C3.70824 6.31003 4.23148 5.53894 4.96126 4.85047C5.8425 3.983 6.80635 3.55615 7.82529 3.55615C8.21083 3.55615 8.59637 3.63877 8.94061 3.804C9.29861 3.96923 9.61531 4.21708 9.86316 4.57509L13.0577 9.07767C13.3055 9.42191 13.4845 9.7386 13.6084 10.0415C13.7324 10.3307 13.8012 10.6198 13.8012 10.8815C13.8012 11.2119 13.7048 11.5424 13.512 11.8591C13.333 12.1758 13.0714 12.5062 12.741 12.8367L11.6945 13.9245C11.543 14.076 11.4742 14.255 11.4742 14.4753C11.4742 14.5854 11.4879 14.6818 11.5155 14.792C11.5568 14.9021 11.5981 14.9847 11.6256 15.0674C11.8735 15.5217 12.3003 16.1138 12.9062 16.8298C13.5258 17.5458 14.1867 18.2756 14.9027 19.0054C15.6463 19.7352 16.3623 20.4099 17.0921 21.0295C17.8081 21.6353 18.4002 22.0484 18.8683 22.2963C18.9372 22.3238 19.0198 22.3651 19.1162 22.4064C19.2263 22.4477 19.3365 22.4615 19.4604 22.4615C19.6945 22.4615 19.8735 22.3789 20.025 22.2274L21.0714 21.1947C21.4157 20.8505 21.7461 20.5889 22.0628 20.4236C22.3795 20.2309 22.6962 20.1345 23.0405 20.1345C23.3021 20.1345 23.5775 20.1896 23.8804 20.3135C24.1833 20.4374 24.5 20.6164 24.8442 20.8505L29.4019 24.0863C29.7599 24.3341 30.0078 24.6233 30.1592 24.9675C30.2969 25.3118 30.3795 25.656 30.3795 26.0415Z" stroke="#F8F8F8" stroke-width="1.77035" stroke-miterlimit="10"/>
</svg>
