<svg width="34" height="34" viewBox="0 0 34 34" fill="none" xmlns="http://www.w3.org/2000/svg">
<path d="M22.8567 9.47699V9.0639C22.8567 6.02087 20.392 3.55615 17.3489 3.55615C14.3059 3.55615 11.8412 6.02087 11.8412 9.0639V15.9486" stroke="#CCD6E0" stroke-width="1.77035" stroke-linecap="round" stroke-linejoin="round"/>
<path d="M13.2732 20.3412C14.2784 21.4565 15.7379 22.145 17.3489 22.145C20.392 22.145 22.8567 19.6802 22.8567 16.6372V15.9487" stroke="#CCD6E0" stroke-width="1.77035" stroke-linecap="round" stroke-linejoin="round"/>
<path d="M10.1614 24.1412C12.0478 25.89 14.5676 26.964 17.349 26.964C23.1597 26.964 27.8826 22.2411 27.8826 16.4304V14.0896" stroke="#CCD6E0" stroke-width="1.77035" stroke-linecap="round" stroke-linejoin="round"/>
<path d="M6.81531 14.0896V16.4304C6.81531 17.8899 7.10446 19.2669 7.64147 20.5337" stroke="#CCD6E0" stroke-width="1.77035" stroke-linecap="round" stroke-linejoin="round"/>
<path d="M28.4608 4.71289L6.23706 26.9504" stroke="#CCD6E0" stroke-width="1.77035" stroke-linecap="round" stroke-linejoin="round"/>
<path d="M15.972 4.93311V9.06392" stroke="#CCD6E0" stroke-width="1.77035" stroke-linecap="round" stroke-linejoin="round"/>
<path d="M17.3489 26.9641V31.0949" stroke="#CCD6E0" stroke-width="1.77035" stroke-linecap="round" stroke-linejoin="round"/>
</svg>
