<svg width="16" height="16" viewBox="0 0 16 16" fill="none" xmlns="http://www.w3.org/2000/svg">
<path d="M10.6667 4.20016V4.00016C10.6667 2.52683 9.47337 1.3335 8.00004 1.3335C6.52671 1.3335 5.33337 2.52683 5.33337 4.00016V7.3335" stroke="#003366" stroke-linecap="round" stroke-linejoin="round"/>
<path d="M6.02661 9.46016C6.51328 10.0002 7.21994 10.3335 7.99994 10.3335C9.47328 10.3335 10.6666 9.14016 10.6666 7.66683V7.3335" stroke="#003366" stroke-linecap="round" stroke-linejoin="round"/>
<path d="M4.5199 11.3C5.43323 12.1467 6.65323 12.6667 7.9999 12.6667C10.8132 12.6667 13.0999 10.38 13.0999 7.56668V6.43335" stroke="#003366" stroke-linecap="round" stroke-linejoin="round"/>
<path d="M2.90002 6.43335V7.56668C2.90002 8.27335 3.04002 8.94002 3.30002 9.55335" stroke="#003366" stroke-linecap="round" stroke-linejoin="round"/>
<path d="M13.38 1.89331L2.62 12.66" stroke="#003366" stroke-linecap="round" stroke-linejoin="round"/>
<path d="M7.33337 2V4" stroke="#003366" stroke-linecap="round" stroke-linejoin="round"/>
<path d="M8 12.6665V14.6665" stroke="#003366" stroke-linecap="round" stroke-linejoin="round"/>
</svg>
