<svg width="34" height="34" viewBox="0 0 34 34" fill="none" xmlns="http://www.w3.org/2000/svg">
<path d="M3.23071 14.5716V20.0793C3.23071 22.8332 4.60765 24.2101 7.36153 24.2101H9.33055C9.84001 24.2101 10.3495 24.3616 10.7901 24.6232L14.8108 27.143C18.2806 29.3186 21.1309 27.7351 21.1309 23.6456V11.0053C21.1309 6.90203 18.2806 5.33232 14.8108 7.50789L10.7901 10.0277C10.3495 10.2893 9.84001 10.4408 9.33055 10.4408H7.36153C4.60765 10.4408 3.23071 11.8177 3.23071 14.5716Z" stroke="#2D2D2D" stroke-width="1.77035"/>
<path d="M25.2617 11.8179C27.7127 15.0812 27.7127 19.57 25.2617 22.8334" stroke="#2D2D2D" stroke-width="1.77035" stroke-linecap="round" stroke-linejoin="round"/>
<path d="M27.7815 8.37524C31.7608 13.6765 31.7608 20.9742 27.7815 26.2754" stroke="#2D2D2D" stroke-width="1.77035" stroke-linecap="round" stroke-linejoin="round"/>
</svg>
